<svg xmlns="http://www.w3.org/2000/svg" fill-rule="evenodd" stroke-linejoin="round" stroke-miterlimit="1.41" clip-rule="evenodd" width="281" height="77"><path fill="#e72321" fill-rule="nonzero" d="M281 24.7v53h-25.4c-1.2-2.4-4.6-1.6-6-3.7h-7.3c-2.5 0-5 .3-7.3-.1-2.6-.5-4.6 1.1-6.8 1.6-3.8.7-7.7 1.1-11.5 1-4.7 0-9.4-.3-14 .1-4.9.4-9.4-1.4-14.2-1.3-7.6.1-15.2.4-22.7-.1s-14.7 2-22.2 1.3c-.9-.1-1.8 0-1.7 1.2h-95c.1-1.3-1.3-1.5-1.9-2.5-1.7.1-3.5.1-5.2 0-8.3-1.6-11-1.6-19.5 0-1.3.4-2.7-.1-3.5-1.3-.3.3-.6.8-.9.9-5.3.9-10.6.2-15.9.4V0h101.7v.6c3.5.5 6.8 2 10.5 1.9 6.4-.2 12.9 0 19.3 0 1.3 0 2.8.3 4-.1 5.5-1.9 11.4-1.9 16.9 0 .6.3 1.3.2 1.9 0 2.7-2.1 5.9-1.1 8.8-1.1 6.9-.1 13.7 0 20.6-.1 1 0 2.4.5 2.4-1.2h24.1c-.1 1.3 1.4 1.5 1.9 2.4 2.9.3 6.1-.7 8.8 1.2.6.3 1.3.3 1.9 0 2-2.1 4.6-1.1 6.9-1.1 4.7-.2 9.4-.2 14 0 4.1.2 8.1-.3 12.2.9 3.2 1 6.6.8 9.6-.6 2.4-1.2 5.6-.5 8.4-.2.2 0 .3.3.5.4l-1.3 1.3c1 1.5 2.8 2.2 4.5 1.9.1 0 .4.5.6.7-.8 1.4-3-.6-3.8 1.4 1.3.8 2.9-.3 4 1l-4.2 3.2c-1 .3-3.3-.9-5.8.8h5.3l3.9 4-.6.6c.8.7 1.7 1.3.9 3.5 0 .1-1.8-1-2.1.3 1.6.5.7 2.3 1.9 3h3.3z"/></svg>